# xmcd
#
# Track frame offsets: 
#        150
#        19116
#        32833
#        46934
#        67439
#        84614
#        97391
#        113732
#        128946
#        144265
#        158444
#        172322
#        187390
#        205432
#        223185
#        244189
#
# Disc length: 3505 seconds
#
# Revision: 2
# Processed by: cddbd v1.5.2PL0 Copyright (c) Steve Scherf et al.
# Submitted via: ExactAudioCopyFreeDBPlugin 1.0
#
DISCID=fc0daf10
DTITLE=Ben Webster - Stompin' at the Savoy - CD 4
DYEAR=2005
DGENRE=Jazz
TTITLE0=Jive at six
TTITLE1=Tenderly
TTITLE2=Don't get around much any more
TTITLE3=Bounce blues
TTITLE4=That's all
TTITLE5=Pennies from heaven
TTITLE6=Danny Boy
TTITLE7=Cotton tail
TTITLE8=My funny Valentine
TTITLE9=You're mine, you!
TTITLE10=Sophisticated lady
TTITLE11=Love's away
TTITLE12=Almost like being in love
TTITLE13=Chelsea Bridge
TTITLE14=Willow weep for me
TTITLE15=Until tonight
EXTD=YEAR: 1953
EXTT0=
EXTT1=
EXTT2=
EXTT3=
EXTT4=
EXTT5=
EXTT6=
EXTT7=
EXTT8=
EXTT9=
EXTT10=
EXTT11=
EXTT12=
EXTT13=
EXTT14=
EXTT15=
PLAYORDER=
